<svg width="961" height="983" viewBox="0 0 961 983" fill="none" xmlns="http://www.w3.org/2000/svg">
<path d="M413.23 15.5869C394.76 24.6496 377.838 39.4185 354.164 60.0853L350.461 63.2501C330.022 82.0957 303.873 93.1842 276.394 94.658L271.613 95.0416C240.579 97.583 218.406 99.3571 199.093 106.358C177.142 114.29 157.204 127.144 140.738 143.979C124.273 160.813 111.697 181.201 103.931 203.65C97.1335 223.406 95.399 246.087 92.9145 277.831L92.5395 282.722C91.0987 310.83 80.2583 337.578 61.8345 358.484L58.7406 362.224C38.5363 386.487 24.051 403.798 15.238 422.69C5.20642 444.178 0 467.688 0 491.5C0 515.312 5.20642 538.822 15.238 560.31C24.0979 579.202 38.5363 596.513 58.7406 620.728L61.8345 624.516C81.0544 647.532 90.1487 669.542 92.5395 700.278L92.9145 705.169C95.399 736.913 97.1335 759.594 103.978 779.35C111.733 801.803 124.299 822.197 140.756 839.04C157.214 855.882 177.146 868.746 199.093 876.69C218.406 883.643 240.579 885.417 271.613 887.958L276.394 888.342C305.88 890.74 327.491 899.754 350.461 919.75L354.164 922.915C377.838 943.581 394.76 958.398 413.23 967.413C434.237 977.674 457.221 983 480.5 983C503.779 983 526.763 977.674 547.77 967.413C566.239 958.35 583.162 943.581 606.836 922.915L610.539 919.75C633.04 900.09 654.557 890.787 684.606 888.342L689.387 887.958C720.42 885.417 742.594 883.643 761.907 876.642C783.858 868.709 803.796 855.856 820.262 839.021C836.727 822.187 849.303 801.799 857.069 779.35C863.866 759.594 865.601 736.913 868.085 705.169L868.46 700.278C870.804 670.117 879.617 648.012 899.165 624.516L902.259 620.728C922.464 596.513 936.949 579.202 945.762 560.31C955.793 538.822 961 515.312 961 491.5C961 467.688 955.793 444.178 945.762 422.69C936.902 403.798 922.464 386.487 902.259 362.272L899.165 358.484C880.742 337.578 869.901 310.83 868.46 282.722L868.085 277.831C865.601 246.087 863.866 223.406 857.022 203.65C849.267 181.197 836.701 160.803 820.244 143.96C803.786 127.118 783.854 114.254 761.907 106.31C742.594 99.3571 720.42 97.583 689.387 95.0416L684.606 94.658C657.127 93.1842 630.978 82.0957 610.539 63.2501L606.836 60.0853C583.162 39.4185 566.239 24.6016 547.77 15.5869C526.763 5.32561 503.779 0 480.5 0C457.221 0 434.237 5.32561 413.23 15.5869ZM316.428 455.537H644.572C653.897 455.537 662.839 459.326 669.433 466.07C676.026 472.815 679.73 481.962 679.73 491.5C679.73 501.038 676.026 510.185 669.433 516.93C662.839 523.674 653.897 527.463 644.572 527.463H316.428C307.103 527.463 298.16 523.674 291.567 516.93C284.974 510.185 281.269 501.038 281.269 491.5C281.269 481.962 284.974 472.815 291.567 466.07C298.16 459.326 307.103 455.537 316.428 455.537Z" fill="white"/>
</svg>
